ffmpeg started on 2016-11-28 at 00:47:52
Report written to "Output/NVENCh264/results/ffmpeg/crowd_run_2160p50llhp5000k.log"
Command line:
Tools/ffmpeg/ffmpeg -benchmark -y -i Input/y4m/crowd_run_2160p50.y4m -c:v h264_nvenc -preset llhp -b:v 5000k -an Output/NVENCh264/encoded/crowd_run_2160p50llhp5000k.mkv
ffmpeg version N-82227-gdb23fde Copyright (c) 2000-2016 the FFmpeg developers
  built with gcc 5.4.0 (Ubuntu 5.4.0-6ubuntu1~16.04.2) 20160609
  configuration: --prefix=/home/jaroslav/ffmpeg_build --pkg-config-flags=--static --extra-cflags=-I/home/jaroslav/ffmpeg_build/include --extra-ldflags=-L/home/jaroslav/ffmpeg_build/lib --bindir=/home/jaroslav/bin --enable-gpl --enable-libass --enable-libfdk-aac --enable-libfreetype --enable-libmp3lame --enable-libopus --enable-libtheora --enable-libvorbis --enable-libvpx --enable-libx264 --enable-libx265 --enable-nvenc --enable-libmfx --enable-libxvid --enable-libgsm --enable-libopencore-amrnb --enable-version3 --enable-nonfree
  libavutil      55. 35.100 / 55. 35.100
  libavcodec     57. 66.101 / 57. 66.101
  libavformat    57. 57.100 / 57. 57.100
  libavdevice    57.  2.100 / 57.  2.100
  libavfilter     6. 66.100 /  6. 66.100
  libswscale      4.  3.100 /  4.  3.100
  libswresample   2.  4.100 /  2.  4.100
  libpostproc    54.  2.100 / 54.  2.100
Input #0, yuv4mpegpipe, from 'Input/y4m/crowd_run_2160p50.y4m':
  Duration: 00:00:10.00, start: 0.000000, bitrate: 4976642 kb/s
    Stream #0:0: Video: rawvideo (I420 / 0x30323449), yuv420p(progressive), 3840x2160, SAR 1:1 DAR 16:9, 50 fps, 50 tbr, 50 tbn, 50 tbc
[h264_nvenc @ 0x3deb1c0] The variable bitrate rate-control requires the 'qmin' and/or 'qmax' option set.
Output #0, matroska, to 'Output/NVENCh264/encoded/crowd_run_2160p50llhp5000k.mkv':
  Metadata:
    encoder         : Lavf57.57.100
    Stream #0:0: Video: h264 (h264_nvenc) (Main) (H264 / 0x34363248), yuv420p, 3840x2160 [SAR 1:1 DAR 16:9], q=-1--1, 5000 kb/s, 50 fps, 1k tbn, 50 tbc
    Metadata:
      encoder         : Lavc57.66.101 h264_nvenc
    Side data:
      cpb: bitrate max/min/avg: 0/0/5000000 buffer size: 10000000 vbv_delay: -1
Stream mapping:
  Stream #0:0 -> #0:0 (rawvideo (native) -> h264 (h264_nvenc))
Press [q] to stop, [?] for help
frame=    9 fps=0.0 q=0.0 size=       0kB time=00:00:00.00 bitrate=N/A speed=   0x    frame=   21 fps= 20 q=0.0 size=       0kB time=00:00:00.00 bitrate=N/A speed=   0x    frame=   33 fps= 21 q=49.0 size=       1kB time=00:00:00.04 bitrate= 145.8kbits/s speed=0.0266x    frame=   49 fps= 24 q=49.0 size=       1kB time=00:00:00.36 bitrate=  16.6kbits/s speed=0.175x    frame=   67 fps= 26 q=48.0 size=       1kB time=00:00:00.72 bitrate=   8.3kbits/s speed=0.279x    frame=   85 fps= 27 q=49.0 size=       1kB time=00:00:01.08 bitrate=   5.5kbits/s speed=0.348x    frame=  102 fps= 24 q=49.0 size=       1kB time=00:00:01.42 bitrate=   4.2kbits/s speed=0.335x    frame=  103 fps= 13 q=49.0 size=       1kB time=00:00:01.44 bitrate=   4.1kbits/s speed=0.183x    frame=  104 fps=9.0 q=49.0 size=       1kB time=00:00:01.46 bitrate=   4.1kbits/s speed=0.126x    frame=  121 fps= 10 q=49.0 size=       1kB time=00:00:01.80 bitrate=   3.3kbits/s speed=0.149x    frame=  139 fps= 11 q=49.0 size=       1kB time=00:00:02.16 bitrate=   2.8kbits/s speed=0.172x    frame=  156 fps= 12 q=49.0 size=       1kB time=00:00:02.50 bitrate=   2.4kbits/s speed=0.191x    frame=  173 fps= 13 q=49.0 size=       1kB time=00:00:02.84 bitrate=   2.1kbits/s speed=0.209x    frame=  190 fps= 13 q=49.0 size=       1kB time=00:00:03.18 bitrate=   1.9kbits/s speed=0.225x    frame=  207 fps= 14 q=49.0 size=       1kB time=00:00:03.52 bitrate=   1.7kbits/s speed=0.241x    frame=  224 fps= 15 q=49.0 size=       1kB time=00:00:03.86 bitrate=   1.5kbits/s speed=0.255x    frame=  242 fps= 15 q=49.0 size=       1kB time=00:00:04.22 bitrate=   1.4kbits/s speed=0.269x    frame=  260 fps= 16 q=49.0 size=       1kB time=00:00:04.58 bitrate=   1.3kbits/s speed=0.283x    frame=  278 fps= 17 q=49.0 size=       1kB time=00:00:04.94 bitrate=   1.2kbits/s speed=0.296x    frame=  292 fps= 17 q=49.0 size=    3253kB time=00:00:05.22 bitrate=5103.4kbits/s speed=0.303x    frame=  310 fps= 17 q=49.0 size=    3253kB time=00:00:05.58 bitrate=4774.2kbits/s speed=0.314x    frame=  328 fps= 18 q=49.0 size=    3253kB time=00:00:05.94 bitrate=4484.9kbits/s speed=0.325x    frame=  346 fps= 18 q=49.0 size=    3253kB time=00:00:06.30 bitrate=4228.6kbits/s speed=0.335x    frame=  363 fps= 19 q=49.0 size=    3253kB time=00:00:06.64 bitrate=4012.1kbits/s speed=0.344x    frame=  381 fps= 19 q=49.0 size=    3253kB time=00:00:07.00 bitrate=3805.8kbits/s speed=0.353x    frame=  399 fps= 19 q=49.0 size=    3253kB time=00:00:07.36 bitrate=3619.7kbits/s speed=0.358x    frame=  417 fps= 20 q=49.0 size=    3253kB time=00:00:07.72 bitrate=3450.9kbits/s speed=0.367x    frame=  435 fps= 20 q=49.0 size=    3253kB time=00:00:08.08 bitrate=3297.2kbits/s speed=0.375x    frame=  453 fps= 21 q=49.0 size=    3253kB time=00:00:08.44 bitrate=3156.6kbits/s speed=0.382x    frame=  471 fps= 21 q=49.0 size=    3253kB time=00:00:08.80 bitrate=3027.5kbits/s speed=0.39x    frame=  489 fps= 21 q=49.0 size=    3253kB time=00:00:09.16 bitrate=2908.5kbits/s speed=0.397x    frame=  500 fps= 21 q=49.0 Lsize=    6660kB time=00:00:09.98 bitrate=5466.3kbits/s speed=0.425x    
video:6656kB audio:0kB subtitle:0kB other streams:0kB global headers:0kB muxing overhead: 0.063898%
bench: utime=1.196s
bench: maxrss=1408792kB
